<mxfile host="Electron" modified="2024-04-03T09:51:23.523Z" agent="Mozilla/5.0 (Windows NT 10.0; Win64; x64) AppleWebKit/537.36 (KHTML, like Gecko) draw.io/22.1.2 Chrome/114.0.5735.289 Electron/25.9.4 Safari/537.36" etag="HAf4Ehx3EO-oKCYwFhlZ" version="22.1.2" type="device">
  <diagram name="Page-1" id="2ca16b54-16f6-2749-3443-fa8db7711227">
    <mxGraphModel dx="2118" dy="1609" grid="1" gridSize="10" guides="1" tooltips="1" connect="1" arrows="1" fold="1" page="1" pageScale="1" pageWidth="1100" pageHeight="850" background="none" math="0" shadow="0">
      <root>
        <mxCell id="0" />
        <mxCell id="1" parent="0" />
        <mxCell id="2ed32ef02a7f4228-18" style="edgeStyle=orthogonalEdgeStyle;html=1;entryX=0.5;entryY=0;dashed=1;labelBackgroundColor=none;startArrow=ERmandOne;endArrow=ERoneToMany;fontFamily=Verdana;fontSize=12;align=left;" parent="1" source="2ed32ef02a7f4228-2" target="2ed32ef02a7f4228-8" edge="1">
          <mxGeometry relative="1" as="geometry" />
        </mxCell>
        <mxCell id="uhuRt3K-o86CLBtlCFln-19" value="map to" style="edgeLabel;html=1;align=center;verticalAlign=middle;resizable=0;points=[];" vertex="1" connectable="0" parent="2ed32ef02a7f4228-18">
          <mxGeometry x="0.1292" y="1" relative="1" as="geometry">
            <mxPoint as="offset" />
          </mxGeometry>
        </mxCell>
        <mxCell id="2ed32ef02a7f4228-20" style="edgeStyle=orthogonalEdgeStyle;html=1;dashed=1;labelBackgroundColor=none;startArrow=ERmandOne;endArrow=ERoneToMany;fontFamily=Verdana;fontSize=12;align=left;" parent="1" source="2ed32ef02a7f4228-2" target="2ed32ef02a7f4228-11" edge="1">
          <mxGeometry relative="1" as="geometry" />
        </mxCell>
        <mxCell id="uhuRt3K-o86CLBtlCFln-18" value="reference" style="edgeLabel;html=1;align=center;verticalAlign=middle;resizable=0;points=[];" vertex="1" connectable="0" parent="2ed32ef02a7f4228-20">
          <mxGeometry x="0.2766" relative="1" as="geometry">
            <mxPoint as="offset" />
          </mxGeometry>
        </mxCell>
        <mxCell id="2ed32ef02a7f4228-2" value="&lt;div style=&quot;box-sizing: border-box ; width: 100% ; background: #e4e4e4 ; padding: 2px&quot;&gt;Resources&lt;/div&gt;&lt;table style=&quot;width: 100% ; font-size: 1em&quot; cellpadding=&quot;2&quot; cellspacing=&quot;0&quot;&gt;&lt;tbody&gt;&lt;tr&gt;&lt;td&gt;name&lt;span style=&quot;white-space: pre;&quot;&gt;&#x9;&lt;/span&gt;&lt;/td&gt;&lt;td&gt;string&lt;/td&gt;&lt;/tr&gt;&lt;tr&gt;&lt;td&gt;type&lt;/td&gt;&lt;td&gt;string&lt;/td&gt;&lt;/tr&gt;&lt;tr&gt;&lt;td&gt;namespace&lt;/td&gt;&lt;td&gt;string&lt;/td&gt;&lt;/tr&gt;&lt;tr&gt;&lt;td&gt;properties&lt;/td&gt;&lt;td&gt;string&lt;/td&gt;&lt;/tr&gt;&lt;/tbody&gt;&lt;/table&gt;" style="verticalAlign=top;align=left;overflow=fill;html=1;rounded=0;shadow=0;comic=0;labelBackgroundColor=none;strokeWidth=1;fontFamily=Verdana;fontSize=12" parent="1" vertex="1">
          <mxGeometry x="460" y="100" width="180" height="100" as="geometry" />
        </mxCell>
        <mxCell id="2ed32ef02a7f4228-8" value="&lt;div style=&quot;box-sizing: border-box ; width: 100% ; background: #e4e4e4 ; padding: 2px&quot;&gt;AgencyInfo&lt;/div&gt;&lt;table style=&quot;width: 100% ; font-size: 1em&quot; cellpadding=&quot;2&quot; cellspacing=&quot;0&quot;&gt;&lt;tbody&gt;&lt;tr&gt;&lt;td&gt;name&lt;/td&gt;&lt;td&gt;string&lt;/td&gt;&lt;/tr&gt;&lt;tr&gt;&lt;td&gt;subscription_name&lt;/td&gt;&lt;td&gt;string&lt;/td&gt;&lt;/tr&gt;&lt;tr&gt;&lt;td&gt;subscription_id&lt;br&gt;&lt;/td&gt;&lt;td&gt;string&lt;br&gt;&lt;/td&gt;&lt;/tr&gt;&lt;/tbody&gt;&lt;/table&gt;" style="verticalAlign=top;align=left;overflow=fill;html=1;rounded=0;shadow=0;comic=0;labelBackgroundColor=none;strokeWidth=1;fontFamily=Verdana;fontSize=12" parent="1" vertex="1">
          <mxGeometry x="460" y="280" width="210" height="90" as="geometry" />
        </mxCell>
        <mxCell id="2ed32ef02a7f4228-11" value="&lt;div style=&quot;box-sizing:border-box;width:100%;background:#e4e4e4;padding:2px;&quot;&gt;Risk Rating Excel&lt;/div&gt;&lt;table style=&quot;width:100%;font-size:1em;&quot; cellpadding=&quot;2&quot; cellspacing=&quot;0&quot;&gt;&lt;tbody&gt;&lt;tr&gt;&lt;td&gt;&lt;br&gt;&lt;/td&gt;&lt;td&gt;&lt;br&gt;&lt;/td&gt;&lt;/tr&gt;&lt;tr&gt;&lt;td&gt;&lt;br&gt;&lt;/td&gt;&lt;td&gt;&lt;br&gt;&lt;/td&gt;&lt;/tr&gt;&lt;tr&gt;&lt;td&gt;&lt;/td&gt;&lt;td&gt;&lt;br&gt;&lt;/td&gt;&lt;/tr&gt;&lt;/tbody&gt;&lt;/table&gt;" style="verticalAlign=top;align=left;overflow=fill;html=1;rounded=0;shadow=0;comic=0;labelBackgroundColor=none;strokeWidth=1;fontFamily=Verdana;fontSize=12" parent="1" vertex="1">
          <mxGeometry x="780" y="100" width="170" height="80" as="geometry" />
        </mxCell>
        <mxCell id="uhuRt3K-o86CLBtlCFln-22" style="edgeStyle=orthogonalEdgeStyle;rounded=0;orthogonalLoop=1;jettySize=auto;html=1;entryX=0;entryY=0.5;entryDx=0;entryDy=0;exitX=0.5;exitY=0;exitDx=0;exitDy=0;" edge="1" parent="1" source="uhuRt3K-o86CLBtlCFln-1" target="uhuRt3K-o86CLBtlCFln-21">
          <mxGeometry relative="1" as="geometry" />
        </mxCell>
        <mxCell id="uhuRt3K-o86CLBtlCFln-24" style="edgeStyle=orthogonalEdgeStyle;rounded=0;orthogonalLoop=1;jettySize=auto;html=1;entryX=0;entryY=0.5;entryDx=0;entryDy=0;entryPerimeter=0;" edge="1" parent="1" source="uhuRt3K-o86CLBtlCFln-1" target="uhuRt3K-o86CLBtlCFln-30">
          <mxGeometry relative="1" as="geometry">
            <mxPoint x="-215" y="80" as="targetPoint" />
          </mxGeometry>
        </mxCell>
        <mxCell id="uhuRt3K-o86CLBtlCFln-25" value="Json as is" style="edgeLabel;html=1;align=center;verticalAlign=middle;resizable=0;points=[];" vertex="1" connectable="0" parent="uhuRt3K-o86CLBtlCFln-24">
          <mxGeometry x="-0.1578" y="-1" relative="1" as="geometry">
            <mxPoint as="offset" />
          </mxGeometry>
        </mxCell>
        <mxCell id="uhuRt3K-o86CLBtlCFln-1" value="ARM Templates&lt;br&gt;Json data" style="rounded=1;whiteSpace=wrap;html=1;" vertex="1" parent="1">
          <mxGeometry x="-430" y="20" width="100" height="50" as="geometry" />
        </mxCell>
        <mxCell id="uhuRt3K-o86CLBtlCFln-17" value="conceptual data model" style="text;html=1;align=center;verticalAlign=middle;resizable=0;points=[];autosize=1;strokeColor=none;fillColor=none;fontStyle=1;fontSize=20;" vertex="1" parent="1">
          <mxGeometry x="560" y="10" width="240" height="40" as="geometry" />
        </mxCell>
        <mxCell id="uhuRt3K-o86CLBtlCFln-20" value="decision TODO" style="text;html=1;align=center;verticalAlign=middle;resizable=0;points=[];autosize=1;strokeColor=none;fillColor=none;fontStyle=1;fontSize=20;" vertex="1" parent="1">
          <mxGeometry x="-150" y="-180" width="170" height="40" as="geometry" />
        </mxCell>
        <mxCell id="uhuRt3K-o86CLBtlCFln-21" value="flatten&lt;br&gt;by&lt;br&gt;Databricks" style="rounded=1;whiteSpace=wrap;html=1;" vertex="1" parent="1">
          <mxGeometry x="-215" y="-60" width="95" height="60" as="geometry" />
        </mxCell>
        <mxCell id="uhuRt3K-o86CLBtlCFln-28" value="Cassandra" style="shape=cylinder3;whiteSpace=wrap;html=1;boundedLbl=1;backgroundOutline=1;size=15;" vertex="1" parent="1">
          <mxGeometry x="-25" y="-70" width="70" height="80" as="geometry" />
        </mxCell>
        <mxCell id="uhuRt3K-o86CLBtlCFln-29" style="edgeStyle=orthogonalEdgeStyle;rounded=0;orthogonalLoop=1;jettySize=auto;html=1;entryX=0;entryY=0.5;entryDx=0;entryDy=0;entryPerimeter=0;" edge="1" parent="1" source="uhuRt3K-o86CLBtlCFln-21" target="uhuRt3K-o86CLBtlCFln-28">
          <mxGeometry relative="1" as="geometry" />
        </mxCell>
        <mxCell id="uhuRt3K-o86CLBtlCFln-30" value="MongoDB" style="shape=cylinder3;whiteSpace=wrap;html=1;boundedLbl=1;backgroundOutline=1;size=15;" vertex="1" parent="1">
          <mxGeometry x="-200" y="50" width="70" height="80" as="geometry" />
        </mxCell>
        <mxCell id="uhuRt3K-o86CLBtlCFln-31" value="visualize" style="text;html=1;align=center;verticalAlign=middle;resizable=0;points=[];autosize=1;strokeColor=none;fillColor=none;fontStyle=0;fontSize=20;" vertex="1" parent="1">
          <mxGeometry x="90" y="25" width="100" height="40" as="geometry" />
        </mxCell>
        <mxCell id="uhuRt3K-o86CLBtlCFln-32" value="transform" style="text;html=1;align=center;verticalAlign=middle;resizable=0;points=[];autosize=1;strokeColor=none;fillColor=none;fontStyle=0;fontSize=20;" vertex="1" parent="1">
          <mxGeometry x="-125" y="-120" width="110" height="40" as="geometry" />
        </mxCell>
        <mxCell id="uhuRt3K-o86CLBtlCFln-33" value="PostgreSQL" style="shape=cylinder3;whiteSpace=wrap;html=1;boundedLbl=1;backgroundOutline=1;size=15;" vertex="1" parent="1">
          <mxGeometry x="-202.5" y="180" width="70" height="80" as="geometry" />
        </mxCell>
        <mxCell id="uhuRt3K-o86CLBtlCFln-34" style="edgeStyle=orthogonalEdgeStyle;rounded=0;orthogonalLoop=1;jettySize=auto;html=1;entryX=0;entryY=0;entryDx=0;entryDy=52.5;entryPerimeter=0;" edge="1" parent="1" source="uhuRt3K-o86CLBtlCFln-1" target="uhuRt3K-o86CLBtlCFln-33">
          <mxGeometry relative="1" as="geometry" />
        </mxCell>
        <mxCell id="uhuRt3K-o86CLBtlCFln-35" value="Json as is" style="edgeLabel;html=1;align=center;verticalAlign=middle;resizable=0;points=[];" vertex="1" connectable="0" parent="uhuRt3K-o86CLBtlCFln-34">
          <mxGeometry x="0.1649" y="4" relative="1" as="geometry">
            <mxPoint as="offset" />
          </mxGeometry>
        </mxCell>
        <mxCell id="uhuRt3K-o86CLBtlCFln-36" value="SQL Server" style="shape=cylinder3;whiteSpace=wrap;html=1;boundedLbl=1;backgroundOutline=1;size=15;" vertex="1" parent="1">
          <mxGeometry x="-200" y="270" width="70" height="80" as="geometry" />
        </mxCell>
        <mxCell id="uhuRt3K-o86CLBtlCFln-37" style="edgeStyle=orthogonalEdgeStyle;rounded=0;orthogonalLoop=1;jettySize=auto;html=1;entryX=0;entryY=0.5;entryDx=0;entryDy=0;entryPerimeter=0;exitX=1;exitY=0.5;exitDx=0;exitDy=0;" edge="1" parent="1" source="uhuRt3K-o86CLBtlCFln-1" target="uhuRt3K-o86CLBtlCFln-36">
          <mxGeometry relative="1" as="geometry">
            <mxPoint x="-320" y="55" as="sourcePoint" />
            <mxPoint x="-192" y="243" as="targetPoint" />
          </mxGeometry>
        </mxCell>
        <mxCell id="uhuRt3K-o86CLBtlCFln-38" value="Json as is" style="edgeLabel;html=1;align=center;verticalAlign=middle;resizable=0;points=[];" vertex="1" connectable="0" parent="uhuRt3K-o86CLBtlCFln-37">
          <mxGeometry x="0.1649" y="4" relative="1" as="geometry">
            <mxPoint as="offset" />
          </mxGeometry>
        </mxCell>
        <mxCell id="uhuRt3K-o86CLBtlCFln-39" value="Jupyter&lt;br&gt;notebook&lt;br&gt;Pandas" style="rounded=1;whiteSpace=wrap;html=1;" vertex="1" parent="1">
          <mxGeometry x="120" y="105" width="110" height="50" as="geometry" />
        </mxCell>
        <mxCell id="uhuRt3K-o86CLBtlCFln-42" style="edgeStyle=orthogonalEdgeStyle;rounded=0;orthogonalLoop=1;jettySize=auto;html=1;entryX=1;entryY=0.5;entryDx=0;entryDy=0;entryPerimeter=0;exitX=0;exitY=0.25;exitDx=0;exitDy=0;" edge="1" parent="1" source="uhuRt3K-o86CLBtlCFln-45" target="uhuRt3K-o86CLBtlCFln-30">
          <mxGeometry relative="1" as="geometry">
            <Array as="points">
              <mxPoint x="90" y="140" />
              <mxPoint x="-20" y="140" />
              <mxPoint x="-20" y="90" />
            </Array>
          </mxGeometry>
        </mxCell>
        <mxCell id="uhuRt3K-o86CLBtlCFln-43" value="db.collection" style="edgeLabel;html=1;align=center;verticalAlign=middle;resizable=0;points=[];" vertex="1" connectable="0" parent="uhuRt3K-o86CLBtlCFln-42">
          <mxGeometry x="-0.1607" y="-2" relative="1" as="geometry">
            <mxPoint as="offset" />
          </mxGeometry>
        </mxCell>
        <mxCell id="uhuRt3K-o86CLBtlCFln-45" value="" style="rounded=1;whiteSpace=wrap;html=1;" vertex="1" parent="1">
          <mxGeometry x="90" y="100" width="20" height="180" as="geometry" />
        </mxCell>
        <mxCell id="uhuRt3K-o86CLBtlCFln-46" style="edgeStyle=orthogonalEdgeStyle;rounded=0;orthogonalLoop=1;jettySize=auto;html=1;entryX=0.5;entryY=1;entryDx=0;entryDy=0;entryPerimeter=0;" edge="1" parent="1" source="uhuRt3K-o86CLBtlCFln-45" target="uhuRt3K-o86CLBtlCFln-28">
          <mxGeometry relative="1" as="geometry">
            <Array as="points">
              <mxPoint x="10" y="110" />
            </Array>
          </mxGeometry>
        </mxCell>
        <mxCell id="uhuRt3K-o86CLBtlCFln-47" value="CQL" style="edgeLabel;html=1;align=center;verticalAlign=middle;resizable=0;points=[];" vertex="1" connectable="0" parent="uhuRt3K-o86CLBtlCFln-46">
          <mxGeometry x="0.237" y="4" relative="1" as="geometry">
            <mxPoint as="offset" />
          </mxGeometry>
        </mxCell>
        <mxCell id="uhuRt3K-o86CLBtlCFln-50" style="edgeStyle=orthogonalEdgeStyle;rounded=0;orthogonalLoop=1;jettySize=auto;html=1;entryX=1;entryY=0.5;entryDx=0;entryDy=0;entryPerimeter=0;" edge="1" parent="1" source="uhuRt3K-o86CLBtlCFln-45" target="uhuRt3K-o86CLBtlCFln-33">
          <mxGeometry relative="1" as="geometry">
            <Array as="points">
              <mxPoint x="-60" y="210" />
              <mxPoint x="-60" y="220" />
            </Array>
          </mxGeometry>
        </mxCell>
        <mxCell id="uhuRt3K-o86CLBtlCFln-51" value="Json query" style="edgeLabel;html=1;align=center;verticalAlign=middle;resizable=0;points=[];" vertex="1" connectable="0" parent="uhuRt3K-o86CLBtlCFln-50">
          <mxGeometry x="-0.2602" y="3" relative="1" as="geometry">
            <mxPoint as="offset" />
          </mxGeometry>
        </mxCell>
        <mxCell id="uhuRt3K-o86CLBtlCFln-54" style="edgeStyle=orthogonalEdgeStyle;rounded=0;orthogonalLoop=1;jettySize=auto;html=1;entryX=1;entryY=0.5;entryDx=0;entryDy=0;entryPerimeter=0;" edge="1" parent="1" source="uhuRt3K-o86CLBtlCFln-45" target="uhuRt3K-o86CLBtlCFln-36">
          <mxGeometry relative="1" as="geometry">
            <Array as="points">
              <mxPoint x="-20" y="260" />
              <mxPoint x="-20" y="310" />
            </Array>
          </mxGeometry>
        </mxCell>
        <mxCell id="uhuRt3K-o86CLBtlCFln-55" value="Json query" style="edgeLabel;html=1;align=center;verticalAlign=middle;resizable=0;points=[];" vertex="1" connectable="0" parent="uhuRt3K-o86CLBtlCFln-54">
          <mxGeometry x="-0.4187" y="3" relative="1" as="geometry">
            <mxPoint as="offset" />
          </mxGeometry>
        </mxCell>
        <mxCell id="uhuRt3K-o86CLBtlCFln-57" value="Power BI" style="rounded=1;whiteSpace=wrap;html=1;" vertex="1" parent="1">
          <mxGeometry x="120" y="168" width="110" height="40" as="geometry" />
        </mxCell>
        <mxCell id="uhuRt3K-o86CLBtlCFln-58" value="Excel" style="rounded=1;whiteSpace=wrap;html=1;" vertex="1" parent="1">
          <mxGeometry x="120" y="220" width="110" height="40" as="geometry" />
        </mxCell>
        <mxCell id="uhuRt3K-o86CLBtlCFln-59" value="data&lt;br&gt;source" style="text;html=1;align=center;verticalAlign=middle;resizable=0;points=[];autosize=1;strokeColor=none;fillColor=none;fontStyle=0;fontSize=20;" vertex="1" parent="1">
          <mxGeometry x="-420" y="-110" width="80" height="60" as="geometry" />
        </mxCell>
      </root>
    </mxGraphModel>
  </diagram>
</mxfile>
